Coordinates
version=1
nRows=16
nColumns=36
inDegrees=yes

Units are S.I. units (second, meters, Newtons, ...)
If the header above contains a line with 'inDegrees', this indicates whether rotational values are in degrees (yes) or radians (no).

endheader
time	pelvis_tilt	pelvis_list	pelvis_rotation	pelvis_tx	pelvis_ty	pelvis_tz	hip_flexion_r	hip_adduction_r	hip_rotation_r	knee_angle_r	knee_angle_r_beta	ankle_angle_r	subtalar_angle_r	mtp_angle_r	hip_flexion_l	hip_adduction_l	hip_rotation_l	knee_angle_l	knee_angle_l_beta	ankle_angle_l	subtalar_angle_l	mtp_angle_l	lumbar_extension	lumbar_bending	lumbar_rotation	arm_flex_r	arm_add_r	arm_rot_r	elbow_flex_r	pro_sup_r	arm_flex_l	arm_add_l	arm_rot_l	elbow_flex_l	pro_sup_l
      0.00000000	      7.87237102	      0.29437867	      3.68564735	      0.00097705	      0.80455738	      0.06995075	     -2.67974338	     -4.40527959	     -3.87017643	     12.80640922	      0.22351401	      9.93688642	     -1.72159621	     -8.60679492	     -2.99360539	     -7.41494138	     -7.33138165	     11.15883186	      0.19475836	     14.22079832	     -1.67801465	     -8.60679492	     -5.72303957	      1.07733166	     -4.95590138	     64.35664691	     22.50106868	     69.03672309	    120.49819968	    100.49547337	     52.02025975	     15.41748185	     72.29866763	    143.83877123	    103.85093357
      0.01666670	      5.60217529	     -0.03226807	      3.59044550	      0.00921180	      0.79953699	      0.06854761	     -0.04285391	     -3.87655310	     -2.99824674	     12.65524946	      0.22087577	     10.97157794	     -3.03055852	     -8.47181227	     -0.67931884	     -7.26743140	     -7.26939529	     11.69716815	      0.20415410	     14.38161313	     -1.11970139	     -8.47181227	     -1.72295205	      1.18402960	     -4.54409772	     66.73621655	     21.18748115	     65.52874428	    120.80534328	    101.26431294	     50.92308421	     16.61038583	     63.28605773	    145.98282227	     99.70801676
      0.03333330	      4.01046913	      0.46701342	      3.63373274	      0.00885980	      0.79325042	      0.06850089	      1.44439618	     -4.58768587	     -3.55794050	     12.35740334	      0.21567738	     10.54450534	     -3.77348786	     -8.19793942	      1.94881394	     -6.84360004	     -7.47125016	     13.00674774	      0.22701057	     13.62910447	     -1.21977319	     -8.19793942	      0.68606029	      0.34455781	     -3.49037206	     67.27964903	     19.65989086	     63.85335355	    121.57753452	    103.82462684	     50.21186889	     16.84395483	     62.62689123	    146.04738927	     97.78783592
      0.05000000	      3.56879720	      1.00559408	      3.77647943	      0.00983990	      0.79262671	      0.06848406	      1.62124324	     -5.14463334	     -3.59155616	     12.05328517	      0.21036951	     10.93672071	     -4.11719559	     -8.01910736	      2.52677385	     -6.38019511	     -7.33139540	     13.10593236	      0.22874167	     13.58583316	     -1.33134374	     -8.01910736	      1.42275969	     -0.36749961	     -2.81980100	     67.62256853	     18.90232968	     64.41290523	    121.52267985	    104.31522868	     50.09448422	     17.25738181	     62.68836557	    145.47942506	     98.20733686
      0.06666670	      3.29824923	      1.23575046	      3.60807189	      0.01088159	      0.79444064	      0.06904988	      1.82058974	     -5.30691536	     -3.42562300	     11.79030569	      0.20577965	     10.74458020	     -4.65356266	     -7.84105333	      2.80281625	     -6.19396038	     -6.77554169	     13.27537967	      0.23169908	     13.16150483	     -1.85224477	     -7.84105333	      1.81446971	     -0.55212384	     -3.32667892	     67.37766318	     19.46666442	     66.11259475	    121.05024642	    104.54224298	     49.71102626	     16.47285592	     61.63677175	    144.91824666	     97.97346652
      0.08333330	      3.21445823	      1.34167116	      3.66721570	      0.01043507	      0.79465871	      0.06890444	      1.91028665	     -5.32203881	     -3.54331273	     11.70356680	      0.20426577	     10.67684331	     -4.57964719	     -7.75421600	      2.83801854	     -6.07285911	     -6.31838077	     12.94676827	      0.22596373	     12.83295720	     -2.14823512	     -7.75421600	      1.88698924	     -0.57473782	     -4.29781641	     66.88150267	     19.98153847	     67.81541914	    120.76133374	    104.73523009	     49.40196160	     15.66654523	     60.44828365	    144.78812801	     98.06473985
      0.10000000	      3.17575196	      1.39780915	      3.83061963	      0.00731033	      0.79611159	      0.06886501	      2.00218097	     -5.32980371	     -3.76290073	     11.37041665	      0.19845121	     10.07522081	     -5.01802210	     -7.67817055	      2.83794144	     -5.95439894	     -6.01927877	     12.49886608	      0.21814637	     12.24269042	     -2.27436167	     -7.67817055	      1.55082540	     -0.54321769	     -5.17678594	     66.79675620	     20.21441699	     68.75011975	    120.10937630	    104.39609243	     49.28264669	     14.48890315	     57.82167944	    143.48416021	     96.42176388
      0.11666670	      3.20499929	      1.50819562	      4.07004711	      0.00872785	      0.79846125	      0.06865434	      1.74207354	     -5.36910092	     -3.95121575	     10.77527265	      0.18806399	      9.44281890	     -5.17555554	     -7.67061075	      2.63304165	     -5.77155794	     -5.66027268	     12.03236674	      0.21000442	     11.57988074	     -2.39557166	     -7.67061075	      1.29800338	     -0.66433974	     -5.92844461	     66.44551882	     20.19577316	     69.17739610	    119.58025499	    103.99680920	     48.61411311	     13.57368388	     55.60890450	    142.34132305	     95.72100403
      0.13333330	      3.20175341	      1.53441655	      4.13307451	      0.00827232	      0.79765763	      0.06867368	      1.55523098	     -5.34623298	     -4.19368156	     10.28549234	      0.17951571	      8.72890984	     -5.46021104	     -7.64851361	      2.46047092	     -5.68312663	     -5.60024103	     11.67758822	      0.20381236	     11.11415755	     -2.38386779	     -7.64851361	      1.12891864	     -0.64528749	     -6.37171919	     66.37366481	     20.20400957	     69.32641616	    119.31920076	    101.95097327	     48.03344462	     12.94584951	     53.38174522	    140.88535426	     92.81135119
      0.15000000	      3.11099673	      1.52322727	      4.22914172	      0.00827953	      0.80037117	      0.06921362	      1.50761228	     -5.29896421	     -4.48161663	      9.86017062	      0.17209244	      8.10632602	     -5.47837252	     -7.62813629	      2.16919088	     -5.60586497	     -5.49976298	     10.89342112	      0.19012607	     10.52404775	     -2.43834692	     -7.62813629	      1.19879875	     -0.65626169	     -6.38312081	     66.15371969	     20.07374502	     69.49141122	    118.92587665	     99.57580266	     47.23365406	     13.18164181	     53.33317905	    141.22511111	     90.46393907
      0.16666670	      3.16796273	      1.52994235	      4.36487705	      0.00855811	      0.80335894	      0.06871512	      1.12908517	     -5.27848741	     -4.97226478	      9.24797244	      0.16140757	      7.36971172	     -5.17719521	     -7.60535701	      1.64976838	     -5.49945437	     -5.30807532	      9.93759782	      0.17344380	      9.71213686	     -2.33895662	     -7.60535701	      1.14225413	     -0.73150641	     -6.23023395	     65.85063174	     19.90947362	     69.07663581	    118.59245502	    102.50747918	     46.60452289	     13.74812250	     53.99599191	    141.79345967	     91.36711764
      0.18333330	      2.99947833	      1.45021977	      4.33550034	      0.00724241	      0.80207681	      0.06920418	      1.24609504	     -5.17295090	     -5.24637348	      8.88720379	      0.15511097	      6.53882766	     -5.09018211	     -7.60399454	      1.43562192	     -5.49126467	     -5.30342126	      9.12315116	      0.15922903	      9.10993907	     -2.29987971	     -7.60399454	      1.31849494	     -0.73390310	     -6.62607116	     65.54747892	     20.11195751	     68.82712521	    118.74348931	    102.08627119	     46.34467514	     12.93456487	     52.66050365	    140.54656003	     90.95027514
      0.20000000	      3.45075711	      1.51333941	      4.38494338	      0.00683737	      0.80291919	      0.06954601	      0.62404464	     -5.16159942	     -5.37486813	      8.53316336	      0.14893180	      6.43423654	     -4.93913159	     -7.59567951	      0.66551694	     -5.37056657	     -5.16136003	      8.57452148	      0.14965363	      8.73481971	     -2.39448393	     -7.59567951	      0.78992645	     -0.80205091	     -7.11078691	     65.47252267	     20.25016773	     68.86102809	    118.95638565	    101.04083308	     45.89826062	     12.38421473	     49.22980880	    139.00054218	     89.71486285
      0.21666670	      3.26857850	      1.53035252	      4.46868142	      0.00825556	      0.80446415	      0.07035800	      0.67409861	     -5.13956438	     -5.54008866	      8.36660420	      0.14602479	      6.41711123	     -4.61565168	     -7.58952848	      0.63930887	     -5.32839911	     -5.06442648	      8.32314026	      0.14526620	      8.23214540	     -2.51416775	     -7.58952848	      0.93530979	     -0.96316939	     -6.93568362	     65.38765147	     20.03653359	     68.84044317	    119.33234974	    100.39456460	     45.10842915	     12.74871715	     48.42747969	    139.28649270	     88.49388400
      0.23333330	      3.57469772	      1.55993074	      4.59254855	      0.00802639	      0.80281357	      0.07022743	      0.24754548	     -5.10426654	     -5.83756848	      8.17400021	      0.14266322	      6.43166826	     -4.50100731	     -7.57115961	      0.13531462	     -5.30055384	     -4.89371348	      8.09158279	      0.14122476	      8.11793411	     -2.53874429	     -7.57115961	      0.53087623	     -1.06396166	     -6.09123726	     65.95867899	     19.78072752	     68.33712479	    118.80427369	    102.25670232	     45.20683167	     13.70358842	     50.34488945	    140.61779088	     89.31046096
      0.25000000	      3.69491535	      1.62823531	      4.71516866	      0.00757725	      0.80301015	      0.07030938	      0.02244144	     -5.12219103	     -5.97256453	      8.04977128	      0.14049501	      6.43522818	     -4.51929459	     -7.56535260	     -0.10461841	     -5.22178361	     -4.71901949	      7.87627195	      0.13746688	      7.85539749	     -2.63604633	     -7.56535260	      0.33123405	     -1.18933502	     -5.29771504	     66.48841667	     19.42928831	     68.05072980	    118.31597301	    101.59019079	     45.48672024	     14.79769454	     52.98914552	    142.26553033	     88.71405847
